<svg width="25" height="29" viewBox="0 0 25 29" fill="none" xmlns="http://www.w3.org/2000/svg">
<path d="M4.0113 0.89209H5.68583L6.83474 5.20276L7.89993 0.89209H9.59074L7.65456 7.30221V11.6769H5.9905V7.30221L4.0113 0.89209V0.89209ZM11.6792 3.65525C10.378 3.65525 9.51515 4.51692 9.51515 5.79196V9.69159C9.51515 11.0935 10.2466 11.8236 11.6792 11.8236C12.8677 11.8236 13.8026 11.0283 13.8026 9.69159V5.79196C13.8026 4.5472 12.8758 3.65525 11.6792 3.65525ZM12.2967 9.62522C12.2967 10.0584 12.0758 10.3774 11.6781 10.3774C11.2699 10.3774 11.0339 10.0432 11.0339 9.62522V5.92354C11.0339 5.48804 11.2339 5.1655 11.649 5.1655C12.1025 5.1655 12.2967 5.47873 12.2967 5.92354V9.62522ZM17.7959 3.72162V9.76029C17.6157 9.98619 17.2145 10.3565 16.9273 10.3565C16.6121 10.3565 16.5342 10.1399 16.5342 9.82084V3.72162H15.0574V10.3704C15.0574 11.1564 15.2969 11.791 16.0888 11.791C16.5354 11.791 17.1564 11.5581 17.7959 10.7978V11.6758H19.2728V3.72162H17.7959ZM20.3577 19.8581C19.8368 19.8581 19.7286 20.2249 19.7286 20.7466V21.5139H20.9717V20.7454C20.9729 20.2331 20.8647 19.8581 20.3577 19.8581ZM14.8888 19.9047C14.7911 19.9548 14.6946 20.0316 14.598 20.1352V24.857C14.7132 24.9804 14.8236 25.0689 14.9318 25.1236C15.1609 25.24 15.4958 25.2482 15.6516 25.0456C15.733 24.9385 15.7737 24.765 15.7737 24.5228V20.6115C15.7737 20.3553 15.7237 20.162 15.6237 20.0293C15.4528 19.8046 15.1353 19.7801 14.8888 19.9047ZM20.5019 13.8555C17.4738 13.6494 7.63363 13.6494 4.61017 13.8555C1.33786 14.0791 0.951788 16.0586 0.927368 21.2694C0.951788 26.4708 1.33437 28.4597 4.61017 28.6832C7.63363 28.8893 17.4738 28.8893 20.5019 28.6832C23.7742 28.4597 24.1603 26.479 24.1847 21.2694C24.1603 16.0679 23.7777 14.0791 20.5019 13.8555ZM6.17074 26.2985H4.58575V17.5188H2.94611V16.0283H7.80922V17.5188H6.16958V26.2985H6.17074ZM11.806 26.2985H10.3989V25.4625C10.1396 25.771 9.86983 26.0062 9.58957 26.1669C8.83139 26.6024 7.79062 26.5919 7.79062 25.0549V18.7228H9.19653V24.5309C9.19653 24.836 9.26979 25.0409 9.57097 25.0409C9.84541 25.0409 10.2268 24.6881 10.3978 24.4739V18.7228H11.8048V26.2985H11.806ZM17.2215 24.7289C17.2215 25.6662 16.8715 26.3952 15.9353 26.3952C15.4202 26.3952 14.9911 26.2065 14.5992 25.7163V26.2985H13.1793V16.0283H14.5992V19.3353C14.9167 18.9475 15.3481 18.6273 15.8505 18.6273C16.8808 18.6273 17.2226 19.4995 17.2226 20.5265V24.7289H17.2215ZM22.4207 22.6888H19.7298V24.1187C19.7298 24.687 19.7786 25.1783 20.3438 25.1783C20.938 25.1783 20.9729 24.7778 20.9729 24.1187V23.5924H22.4207V24.1618C22.4207 25.6208 21.795 26.5058 20.3124 26.5058C18.9693 26.5058 18.282 25.5253 18.282 24.1618V20.7605C18.282 19.4459 19.1495 18.5318 20.4182 18.5318C21.7683 18.5318 22.4195 19.3912 22.4195 20.7605V22.6888H22.4207Z" fill="white"/>
</svg>
